<mxfile host="app.diagrams.net" modified="2023-07-12T10:07:05.824Z" agent="Mozilla/5.0 (X11; Linux x86_64) AppleWebKit/537.36 (KHTML, like Gecko) Chrome/114.0.0.0 Safari/537.36" etag="Atwvz6VTptIp4gIK1SYg" version="21.6.2" type="github">
  <diagram name="Page-1" id="-mco7TJi4aRfyRzVMiyg">
    <mxGraphModel dx="989" dy="553" grid="1" gridSize="10" guides="1" tooltips="1" connect="1" arrows="1" fold="1" page="1" pageScale="1" pageWidth="850" pageHeight="1100" math="0" shadow="0">
      <root>
        <mxCell id="0" />
        <mxCell id="1" parent="0" />
        <mxCell id="SGgT7MJGST8tAyNsxuXf-23" style="edgeStyle=orthogonalEdgeStyle;rounded=0;orthogonalLoop=1;jettySize=auto;html=1;exitX=1;exitY=0.5;exitDx=0;exitDy=0;entryX=0;entryY=0.5;entryDx=0;entryDy=0;" parent="1" source="SGgT7MJGST8tAyNsxuXf-1" target="SGgT7MJGST8tAyNsxuXf-3" edge="1">
          <mxGeometry relative="1" as="geometry" />
        </mxCell>
        <mxCell id="SGgT7MJGST8tAyNsxuXf-1" value="&lt;font style=&quot;font-size: 6px;&quot;&gt;Motovis_ros2_init&lt;/font&gt;" style="rounded=1;whiteSpace=wrap;html=1;fillColor=#d5e8d4;strokeColor=#82b366;" parent="1" vertex="1">
          <mxGeometry x="80" y="50" width="60" height="20" as="geometry" />
        </mxCell>
        <mxCell id="SGgT7MJGST8tAyNsxuXf-22" style="edgeStyle=orthogonalEdgeStyle;rounded=0;orthogonalLoop=1;jettySize=auto;html=1;exitX=1;exitY=0.5;exitDx=0;exitDy=0;entryX=0;entryY=0.5;entryDx=0;entryDy=0;" parent="1" source="SGgT7MJGST8tAyNsxuXf-2" target="SGgT7MJGST8tAyNsxuXf-1" edge="1">
          <mxGeometry relative="1" as="geometry" />
        </mxCell>
        <mxCell id="SGgT7MJGST8tAyNsxuXf-2" value="&lt;font style=&quot;font-size: 6px;&quot;&gt;Start&lt;/font&gt;" style="ellipse;whiteSpace=wrap;html=1;aspect=fixed;fillColor=#dae8fc;strokeColor=#6c8ebf;" parent="1" vertex="1">
          <mxGeometry x="30" y="45" width="30" height="30" as="geometry" />
        </mxCell>
        <mxCell id="SGgT7MJGST8tAyNsxuXf-24" style="edgeStyle=orthogonalEdgeStyle;rounded=0;orthogonalLoop=1;jettySize=auto;html=1;exitX=1;exitY=0.5;exitDx=0;exitDy=0;" parent="1" source="SGgT7MJGST8tAyNsxuXf-3" target="SGgT7MJGST8tAyNsxuXf-9" edge="1">
          <mxGeometry relative="1" as="geometry" />
        </mxCell>
        <mxCell id="SGgT7MJGST8tAyNsxuXf-25" style="edgeStyle=orthogonalEdgeStyle;rounded=0;orthogonalLoop=1;jettySize=auto;html=1;exitX=1;exitY=0.5;exitDx=0;exitDy=0;entryX=0.598;entryY=0.136;entryDx=0;entryDy=0;entryPerimeter=0;" parent="1" source="SGgT7MJGST8tAyNsxuXf-3" target="SGgT7MJGST8tAyNsxuXf-20" edge="1">
          <mxGeometry relative="1" as="geometry" />
        </mxCell>
        <mxCell id="SGgT7MJGST8tAyNsxuXf-3" value="&lt;font style=&quot;font-size: 6px;&quot;&gt;Cam_Init &amp;amp; CNN Init&lt;/font&gt;" style="rounded=1;whiteSpace=wrap;html=1;fillColor=#d5e8d4;strokeColor=#82b366;" parent="1" vertex="1">
          <mxGeometry x="160" y="50" width="60" height="20" as="geometry" />
        </mxCell>
        <mxCell id="SGgT7MJGST8tAyNsxuXf-27" style="edgeStyle=orthogonalEdgeStyle;rounded=0;orthogonalLoop=1;jettySize=auto;html=1;exitX=0.5;exitY=1;exitDx=0;exitDy=0;" parent="1" source="SGgT7MJGST8tAyNsxuXf-9" target="SGgT7MJGST8tAyNsxuXf-11" edge="1">
          <mxGeometry relative="1" as="geometry" />
        </mxCell>
        <mxCell id="SGgT7MJGST8tAyNsxuXf-9" value="" style="shape=image;html=1;verticalAlign=top;verticalLabelPosition=bottom;labelBackgroundColor=#ffffff;imageAspect=0;aspect=fixed;image=https://cdn3.iconfinder.com/data/icons/arrows-set-12/512/history-128.png" parent="1" vertex="1">
          <mxGeometry x="300" y="40" width="40" height="40" as="geometry" />
        </mxCell>
        <mxCell id="SGgT7MJGST8tAyNsxuXf-28" style="edgeStyle=orthogonalEdgeStyle;rounded=0;orthogonalLoop=1;jettySize=auto;html=1;exitX=0.5;exitY=1;exitDx=0;exitDy=0;entryX=0.5;entryY=0;entryDx=0;entryDy=0;" parent="1" source="SGgT7MJGST8tAyNsxuXf-11" target="SGgT7MJGST8tAyNsxuXf-13" edge="1">
          <mxGeometry relative="1" as="geometry" />
        </mxCell>
        <mxCell id="SGgT7MJGST8tAyNsxuXf-11" value="&lt;font style=&quot;font-size: 6px;&quot;&gt;PushCanInfo_to_CNN&lt;/font&gt;" style="rounded=1;whiteSpace=wrap;html=1;fillColor=#d5e8d4;strokeColor=#82b366;" parent="1" vertex="1">
          <mxGeometry x="290" y="100" width="60" height="20" as="geometry" />
        </mxCell>
        <mxCell id="SGgT7MJGST8tAyNsxuXf-29" style="edgeStyle=orthogonalEdgeStyle;rounded=0;orthogonalLoop=1;jettySize=auto;html=1;exitX=0.5;exitY=1;exitDx=0;exitDy=0;entryX=0.5;entryY=0;entryDx=0;entryDy=0;" parent="1" source="SGgT7MJGST8tAyNsxuXf-13" target="SGgT7MJGST8tAyNsxuXf-14" edge="1">
          <mxGeometry relative="1" as="geometry" />
        </mxCell>
        <mxCell id="SGgT7MJGST8tAyNsxuXf-13" value="&lt;font style=&quot;font-size: 6px;&quot;&gt;capture_frames&lt;/font&gt;" style="rounded=1;whiteSpace=wrap;html=1;fillColor=#d5e8d4;strokeColor=#82b366;" parent="1" vertex="1">
          <mxGeometry x="290" y="140" width="60" height="20" as="geometry" />
        </mxCell>
        <mxCell id="SGgT7MJGST8tAyNsxuXf-32" style="edgeStyle=orthogonalEdgeStyle;rounded=0;orthogonalLoop=1;jettySize=auto;html=1;exitX=0.5;exitY=1;exitDx=0;exitDy=0;entryX=0.5;entryY=0;entryDx=0;entryDy=0;" parent="1" source="SGgT7MJGST8tAyNsxuXf-14" target="SGgT7MJGST8tAyNsxuXf-31" edge="1">
          <mxGeometry relative="1" as="geometry" />
        </mxCell>
        <mxCell id="SGgT7MJGST8tAyNsxuXf-14" value="&lt;span style=&quot;font-size: 6px;&quot;&gt;Start_CNN&lt;/span&gt;" style="rounded=1;whiteSpace=wrap;html=1;fillColor=#d5e8d4;strokeColor=#82b366;" parent="1" vertex="1">
          <mxGeometry x="290" y="175" width="60" height="20" as="geometry" />
        </mxCell>
        <mxCell id="SGgT7MJGST8tAyNsxuXf-38" style="edgeStyle=orthogonalEdgeStyle;rounded=0;orthogonalLoop=1;jettySize=auto;html=1;exitX=0;exitY=0.5;exitDx=0;exitDy=0;dashed=1;dashPattern=1 1;endArrow=baseDash;endFill=0;" parent="1" source="SGgT7MJGST8tAyNsxuXf-15" edge="1">
          <mxGeometry relative="1" as="geometry">
            <mxPoint x="250" y="110" as="targetPoint" />
          </mxGeometry>
        </mxCell>
        <mxCell id="YeCXha6RfLNIHZASDCSi-3" value="&lt;font style=&quot;font-size: 6px;&quot;&gt;BevAddress&lt;/font&gt;" style="edgeLabel;html=1;align=center;verticalAlign=middle;resizable=0;points=[];rotation=90;" vertex="1" connectable="0" parent="SGgT7MJGST8tAyNsxuXf-38">
          <mxGeometry x="0.2747" relative="1" as="geometry">
            <mxPoint y="-1" as="offset" />
          </mxGeometry>
        </mxCell>
        <mxCell id="SGgT7MJGST8tAyNsxuXf-39" style="edgeStyle=orthogonalEdgeStyle;rounded=0;orthogonalLoop=1;jettySize=auto;html=1;exitX=0.5;exitY=1;exitDx=0;exitDy=0;entryX=0.5;entryY=0;entryDx=0;entryDy=0;" parent="1" source="SGgT7MJGST8tAyNsxuXf-15" target="SGgT7MJGST8tAyNsxuXf-17" edge="1">
          <mxGeometry relative="1" as="geometry" />
        </mxCell>
        <mxCell id="SGgT7MJGST8tAyNsxuXf-15" value="&lt;font style=&quot;font-size: 6px;&quot;&gt;GetBevAddress&lt;/font&gt;" style="rounded=1;whiteSpace=wrap;html=1;fillColor=#d5e8d4;strokeColor=#82b366;" parent="1" vertex="1">
          <mxGeometry x="290" y="250" width="60" height="20" as="geometry" />
        </mxCell>
        <mxCell id="SGgT7MJGST8tAyNsxuXf-40" style="edgeStyle=orthogonalEdgeStyle;rounded=0;orthogonalLoop=1;jettySize=auto;html=1;exitX=1;exitY=0.5;exitDx=0;exitDy=0;entryX=0;entryY=0.5;entryDx=0;entryDy=0;" parent="1" source="SGgT7MJGST8tAyNsxuXf-17" target="SGgT7MJGST8tAyNsxuXf-19" edge="1">
          <mxGeometry relative="1" as="geometry" />
        </mxCell>
        <mxCell id="SGgT7MJGST8tAyNsxuXf-91" style="edgeStyle=orthogonalEdgeStyle;rounded=0;orthogonalLoop=1;jettySize=auto;html=1;exitX=0.5;exitY=1;exitDx=0;exitDy=0;" parent="1" source="SGgT7MJGST8tAyNsxuXf-17" target="SGgT7MJGST8tAyNsxuXf-52" edge="1">
          <mxGeometry relative="1" as="geometry" />
        </mxCell>
        <mxCell id="SGgT7MJGST8tAyNsxuXf-17" value="&lt;font style=&quot;font-size: 6px;&quot;&gt;publish_freespace&lt;/font&gt;" style="rounded=1;whiteSpace=wrap;html=1;fillColor=#d5e8d4;strokeColor=#82b366;" parent="1" vertex="1">
          <mxGeometry x="290" y="290" width="60" height="20" as="geometry" />
        </mxCell>
        <mxCell id="SGgT7MJGST8tAyNsxuXf-119" style="edgeStyle=orthogonalEdgeStyle;rounded=0;orthogonalLoop=1;jettySize=auto;html=1;exitX=0.5;exitY=1;exitDx=0;exitDy=0;entryX=0.5;entryY=0;entryDx=0;entryDy=0;" parent="1" source="SGgT7MJGST8tAyNsxuXf-19" target="SGgT7MJGST8tAyNsxuXf-41" edge="1">
          <mxGeometry relative="1" as="geometry" />
        </mxCell>
        <mxCell id="SGgT7MJGST8tAyNsxuXf-19" value="&lt;font style=&quot;font-size: 6px;&quot;&gt;GetFreespaceResult&lt;/font&gt;" style="rounded=1;whiteSpace=wrap;html=1;fillColor=#d5e8d4;strokeColor=#82b366;" parent="1" vertex="1">
          <mxGeometry x="398" y="130" width="60" height="20" as="geometry" />
        </mxCell>
        <mxCell id="SGgT7MJGST8tAyNsxuXf-54" style="edgeStyle=orthogonalEdgeStyle;rounded=0;orthogonalLoop=1;jettySize=auto;html=1;exitX=0;exitY=0;exitDx=4;exitDy=20;exitPerimeter=0;dashed=1;" parent="1" source="SGgT7MJGST8tAyNsxuXf-20" target="SGgT7MJGST8tAyNsxuXf-53" edge="1">
          <mxGeometry relative="1" as="geometry">
            <Array as="points">
              <mxPoint x="214" y="90" />
              <mxPoint x="30" y="90" />
            </Array>
          </mxGeometry>
        </mxCell>
        <mxCell id="SGgT7MJGST8tAyNsxuXf-117" value="&lt;font style=&quot;font-size: 6px;&quot;&gt;VIZ BevImage&lt;/font&gt;" style="edgeLabel;html=1;align=center;verticalAlign=middle;resizable=0;points=[];" parent="SGgT7MJGST8tAyNsxuXf-54" vertex="1" connectable="0">
          <mxGeometry x="-0.1785" y="-1" relative="1" as="geometry">
            <mxPoint x="-27" as="offset" />
          </mxGeometry>
        </mxCell>
        <mxCell id="SGgT7MJGST8tAyNsxuXf-20" value="&lt;font style=&quot;font-size: 6px;&quot;&gt;BEV Display Thread&lt;/font&gt;" style="html=1;dashed=0;whiteSpace=wrap;shape=mxgraph.dfd.loop;fillColor=#d5e8d4;strokeColor=#82b366;" parent="1" vertex="1">
          <mxGeometry x="210" y="89" width="70" height="20" as="geometry" />
        </mxCell>
        <mxCell id="SGgT7MJGST8tAyNsxuXf-33" style="edgeStyle=orthogonalEdgeStyle;rounded=0;orthogonalLoop=1;jettySize=auto;html=1;exitX=0.5;exitY=1;exitDx=0;exitDy=0;entryX=0.5;entryY=0;entryDx=0;entryDy=0;" parent="1" source="SGgT7MJGST8tAyNsxuXf-31" target="SGgT7MJGST8tAyNsxuXf-15" edge="1">
          <mxGeometry relative="1" as="geometry" />
        </mxCell>
        <mxCell id="SGgT7MJGST8tAyNsxuXf-31" value="" style="shape=lineEllipse;line=vertical;perimeter=ellipsePerimeter;whiteSpace=wrap;html=1;backgroundOutline=1;" parent="1" vertex="1">
          <mxGeometry x="310" y="215" width="20" height="20" as="geometry" />
        </mxCell>
        <mxCell id="SGgT7MJGST8tAyNsxuXf-34" value="&lt;font style=&quot;font-size: 6px;&quot;&gt;Wait for cnn to complete&lt;/font&gt;" style="text;html=1;strokeColor=none;fillColor=none;align=center;verticalAlign=middle;whiteSpace=wrap;rounded=0;" parent="1" vertex="1">
          <mxGeometry x="280" y="215" width="80" height="10" as="geometry" />
        </mxCell>
        <mxCell id="SGgT7MJGST8tAyNsxuXf-120" style="edgeStyle=orthogonalEdgeStyle;rounded=0;orthogonalLoop=1;jettySize=auto;html=1;exitX=0.5;exitY=1;exitDx=0;exitDy=0;entryX=0.5;entryY=0;entryDx=0;entryDy=0;" parent="1" source="SGgT7MJGST8tAyNsxuXf-41" target="SGgT7MJGST8tAyNsxuXf-45" edge="1">
          <mxGeometry relative="1" as="geometry" />
        </mxCell>
        <mxCell id="SGgT7MJGST8tAyNsxuXf-41" value="&lt;font style=&quot;font-size: 6px;&quot;&gt;CreateRos2PolygonMsg&lt;/font&gt;" style="rounded=1;whiteSpace=wrap;html=1;fillColor=#d5e8d4;strokeColor=#82b366;" parent="1" vertex="1">
          <mxGeometry x="393.25" y="168" width="69.5" height="20" as="geometry" />
        </mxCell>
        <mxCell id="SGgT7MJGST8tAyNsxuXf-51" style="edgeStyle=orthogonalEdgeStyle;rounded=0;orthogonalLoop=1;jettySize=auto;html=1;exitX=1;exitY=0.5;exitDx=0;exitDy=0;entryX=0;entryY=0.5;entryDx=0;entryDy=0;dashed=1;" parent="1" source="SGgT7MJGST8tAyNsxuXf-45" target="SGgT7MJGST8tAyNsxuXf-49" edge="1">
          <mxGeometry relative="1" as="geometry" />
        </mxCell>
        <mxCell id="SGgT7MJGST8tAyNsxuXf-55" style="edgeStyle=orthogonalEdgeStyle;rounded=0;orthogonalLoop=1;jettySize=auto;html=1;exitX=0;exitY=0.5;exitDx=0;exitDy=0;entryX=1;entryY=0.5;entryDx=0;entryDy=0;dashed=1;" parent="1" source="SGgT7MJGST8tAyNsxuXf-45" target="SGgT7MJGST8tAyNsxuXf-53" edge="1">
          <mxGeometry relative="1" as="geometry">
            <Array as="points">
              <mxPoint x="395" y="210" />
              <mxPoint x="140" y="210" />
              <mxPoint x="140" y="215" />
            </Array>
          </mxGeometry>
        </mxCell>
        <mxCell id="SGgT7MJGST8tAyNsxuXf-116" value="&lt;font style=&quot;font-size: 6px;&quot;&gt;VIZ Freespace poloygon&lt;/font&gt;" style="edgeLabel;html=1;align=center;verticalAlign=middle;resizable=0;points=[];" parent="SGgT7MJGST8tAyNsxuXf-55" vertex="1" connectable="0">
          <mxGeometry x="0.3962" y="-1" relative="1" as="geometry">
            <mxPoint as="offset" />
          </mxGeometry>
        </mxCell>
        <mxCell id="SGgT7MJGST8tAyNsxuXf-45" value="&lt;font style=&quot;font-size: 6px;&quot;&gt;PublishPolygon&lt;/font&gt;" style="rounded=1;whiteSpace=wrap;html=1;fillColor=#d5e8d4;strokeColor=#82b366;" parent="1" vertex="1">
          <mxGeometry x="398" y="200" width="60" height="20" as="geometry" />
        </mxCell>
        <mxCell id="SGgT7MJGST8tAyNsxuXf-49" value="&lt;font style=&quot;font-size: 9px;&quot;&gt;CostMapGenerator&lt;/font&gt;" style="shape=process;whiteSpace=wrap;html=1;backgroundOutline=1;fillColor=#fff2cc;strokeColor=#d6b656;" parent="1" vertex="1">
          <mxGeometry x="600" y="180" width="120" height="60" as="geometry" />
        </mxCell>
        <mxCell id="SGgT7MJGST8tAyNsxuXf-50" value="&lt;font style=&quot;font-size: 9px;&quot;&gt;FreeSpacePlanner&lt;/font&gt;" style="shape=process;whiteSpace=wrap;html=1;backgroundOutline=1;fillColor=#fff2cc;strokeColor=#d6b656;" parent="1" vertex="1">
          <mxGeometry x="600" y="430" width="120" height="70" as="geometry" />
        </mxCell>
        <mxCell id="SGgT7MJGST8tAyNsxuXf-60" style="edgeStyle=orthogonalEdgeStyle;rounded=0;orthogonalLoop=1;jettySize=auto;html=1;exitX=1;exitY=0.5;exitDx=0;exitDy=0;entryX=0;entryY=0.5;entryDx=0;entryDy=0;" parent="1" source="SGgT7MJGST8tAyNsxuXf-52" target="SGgT7MJGST8tAyNsxuXf-57" edge="1">
          <mxGeometry relative="1" as="geometry">
            <mxPoint x="380" y="330" as="targetPoint" />
          </mxGeometry>
        </mxCell>
        <mxCell id="SGgT7MJGST8tAyNsxuXf-52" value="&lt;font style=&quot;font-size: 6px;&quot;&gt;publish_parking_lot&lt;/font&gt;" style="rounded=1;whiteSpace=wrap;html=1;fillColor=#d5e8d4;strokeColor=#82b366;" parent="1" vertex="1">
          <mxGeometry x="290" y="330" width="60" height="20" as="geometry" />
        </mxCell>
        <mxCell id="SGgT7MJGST8tAyNsxuXf-74" style="edgeStyle=orthogonalEdgeStyle;rounded=0;orthogonalLoop=1;jettySize=auto;html=1;exitX=1;exitY=0.5;exitDx=0;exitDy=0;entryX=0.5;entryY=0;entryDx=0;entryDy=0;dashed=1;" parent="1" source="SGgT7MJGST8tAyNsxuXf-53" target="SGgT7MJGST8tAyNsxuXf-73" edge="1">
          <mxGeometry relative="1" as="geometry">
            <Array as="points">
              <mxPoint x="60" y="270" />
              <mxPoint x="205" y="270" />
            </Array>
          </mxGeometry>
        </mxCell>
        <mxCell id="SGgT7MJGST8tAyNsxuXf-75" value="&lt;font style=&quot;font-size: 6px;&quot;&gt;Scenario FWD/RVE Parking&lt;/font&gt;" style="edgeLabel;html=1;align=center;verticalAlign=middle;resizable=0;points=[];rotation=0;" parent="SGgT7MJGST8tAyNsxuXf-74" vertex="1" connectable="0">
          <mxGeometry x="0.2585" relative="1" as="geometry">
            <mxPoint x="24" y="40" as="offset" />
          </mxGeometry>
        </mxCell>
        <mxCell id="SGgT7MJGST8tAyNsxuXf-99" style="edgeStyle=orthogonalEdgeStyle;rounded=0;orthogonalLoop=1;jettySize=auto;html=1;exitX=1;exitY=1;exitDx=0;exitDy=0;dashed=1;" parent="1" source="SGgT7MJGST8tAyNsxuXf-53" target="SGgT7MJGST8tAyNsxuXf-98" edge="1">
          <mxGeometry relative="1" as="geometry">
            <Array as="points">
              <mxPoint x="50" y="225" />
              <mxPoint x="50" y="280" />
              <mxPoint x="95" y="280" />
            </Array>
          </mxGeometry>
        </mxCell>
        <mxCell id="SGgT7MJGST8tAyNsxuXf-100" value="&lt;font style=&quot;font-size: 6px;&quot;&gt;Pose from SelectTool&lt;/font&gt;" style="edgeLabel;html=1;align=center;verticalAlign=middle;resizable=0;points=[];" parent="SGgT7MJGST8tAyNsxuXf-99" vertex="1" connectable="0">
          <mxGeometry x="0.4586" y="-1" relative="1" as="geometry">
            <mxPoint as="offset" />
          </mxGeometry>
        </mxCell>
        <mxCell id="YeCXha6RfLNIHZASDCSi-5" style="edgeStyle=orthogonalEdgeStyle;rounded=0;orthogonalLoop=1;jettySize=auto;html=1;exitX=0.75;exitY=0;exitDx=0;exitDy=0;entryX=0;entryY=0.5;entryDx=0;entryDy=0;dashed=1;" edge="1" parent="1" source="SGgT7MJGST8tAyNsxuXf-53" target="YeCXha6RfLNIHZASDCSi-4">
          <mxGeometry relative="1" as="geometry" />
        </mxCell>
        <mxCell id="SGgT7MJGST8tAyNsxuXf-53" value="rviz2" style="shape=process;whiteSpace=wrap;html=1;backgroundOutline=1;fillColor=#e1d5e7;strokeColor=#9673a6;" parent="1" vertex="1">
          <mxGeometry y="195" width="60" height="30" as="geometry" />
        </mxCell>
        <mxCell id="SGgT7MJGST8tAyNsxuXf-107" style="edgeStyle=orthogonalEdgeStyle;rounded=0;orthogonalLoop=1;jettySize=auto;html=1;exitX=0.5;exitY=1;exitDx=0;exitDy=0;entryX=0.5;entryY=0;entryDx=0;entryDy=0;" parent="1" source="SGgT7MJGST8tAyNsxuXf-57" target="SGgT7MJGST8tAyNsxuXf-64" edge="1">
          <mxGeometry relative="1" as="geometry" />
        </mxCell>
        <mxCell id="SGgT7MJGST8tAyNsxuXf-57" value="&lt;font style=&quot;font-size: 6px;&quot;&gt;GetSlotResult&lt;/font&gt;" style="rounded=1;whiteSpace=wrap;html=1;fillColor=#d5e8d4;strokeColor=#82b366;" parent="1" vertex="1">
          <mxGeometry x="402.5" y="330" width="60" height="20" as="geometry" />
        </mxCell>
        <mxCell id="SGgT7MJGST8tAyNsxuXf-102" style="edgeStyle=orthogonalEdgeStyle;rounded=0;orthogonalLoop=1;jettySize=auto;html=1;exitX=0.5;exitY=1;exitDx=0;exitDy=0;entryX=0.5;entryY=0;entryDx=0;entryDy=0;" parent="1" source="SGgT7MJGST8tAyNsxuXf-62" target="SGgT7MJGST8tAyNsxuXf-70" edge="1">
          <mxGeometry relative="1" as="geometry" />
        </mxCell>
        <mxCell id="SGgT7MJGST8tAyNsxuXf-62" value="&lt;font style=&quot;font-size: 6px;&quot;&gt;CreateRos2MarkerArrayMsg&lt;/font&gt;" style="rounded=1;whiteSpace=wrap;html=1;fillColor=#d5e8d4;strokeColor=#82b366;" parent="1" vertex="1">
          <mxGeometry x="402.5" y="470" width="60" height="20" as="geometry" />
        </mxCell>
        <mxCell id="SGgT7MJGST8tAyNsxuXf-65" style="edgeStyle=orthogonalEdgeStyle;rounded=0;orthogonalLoop=1;jettySize=auto;html=1;exitX=0.5;exitY=1;exitDx=0;exitDy=0;entryX=0.5;entryY=0;entryDx=0;entryDy=0;" parent="1" source="SGgT7MJGST8tAyNsxuXf-64" target="SGgT7MJGST8tAyNsxuXf-62" edge="1">
          <mxGeometry relative="1" as="geometry" />
        </mxCell>
        <mxCell id="SGgT7MJGST8tAyNsxuXf-66" value="&lt;font style=&quot;font-size: 6px;&quot;&gt;YES - GreenMarker&lt;/font&gt;" style="edgeLabel;html=1;align=center;verticalAlign=middle;resizable=0;points=[];" parent="SGgT7MJGST8tAyNsxuXf-65" vertex="1" connectable="0">
          <mxGeometry x="-0.219" y="2" relative="1" as="geometry">
            <mxPoint x="-2" y="4" as="offset" />
          </mxGeometry>
        </mxCell>
        <mxCell id="SGgT7MJGST8tAyNsxuXf-67" style="edgeStyle=orthogonalEdgeStyle;rounded=0;orthogonalLoop=1;jettySize=auto;html=1;exitX=1;exitY=0.5;exitDx=0;exitDy=0;entryX=1;entryY=0.5;entryDx=0;entryDy=0;" parent="1" source="SGgT7MJGST8tAyNsxuXf-64" target="SGgT7MJGST8tAyNsxuXf-62" edge="1">
          <mxGeometry relative="1" as="geometry" />
        </mxCell>
        <mxCell id="SGgT7MJGST8tAyNsxuXf-68" value="&lt;font style=&quot;font-size: 6px;&quot;&gt;NO - Blue Markers&lt;/font&gt;" style="edgeLabel;html=1;align=center;verticalAlign=middle;resizable=0;points=[];rotation=90;" parent="SGgT7MJGST8tAyNsxuXf-67" vertex="1" connectable="0">
          <mxGeometry x="-0.1379" y="-2" relative="1" as="geometry">
            <mxPoint x="12" y="3" as="offset" />
          </mxGeometry>
        </mxCell>
        <mxCell id="SGgT7MJGST8tAyNsxuXf-106" style="edgeStyle=orthogonalEdgeStyle;rounded=0;orthogonalLoop=1;jettySize=auto;html=1;exitX=0.5;exitY=1;exitDx=0;exitDy=0;entryX=1;entryY=0.5;entryDx=0;entryDy=0;" parent="1" source="SGgT7MJGST8tAyNsxuXf-64" target="SGgT7MJGST8tAyNsxuXf-105" edge="1">
          <mxGeometry relative="1" as="geometry">
            <Array as="points">
              <mxPoint x="433" y="400" />
            </Array>
          </mxGeometry>
        </mxCell>
        <mxCell id="SGgT7MJGST8tAyNsxuXf-64" value="&lt;font style=&quot;font-size: 6px;&quot;&gt;isParkingLotSelected&lt;/font&gt;" style="rhombus;whiteSpace=wrap;html=1;fillColor=#d5e8d4;strokeColor=#82b366;" parent="1" vertex="1">
          <mxGeometry x="415" y="380" width="35" height="40" as="geometry" />
        </mxCell>
        <mxCell id="SGgT7MJGST8tAyNsxuXf-92" style="edgeStyle=orthogonalEdgeStyle;rounded=0;orthogonalLoop=1;jettySize=auto;html=1;exitX=0.5;exitY=1;exitDx=0;exitDy=0;dashed=1;" parent="1" source="SGgT7MJGST8tAyNsxuXf-70" edge="1">
          <mxGeometry relative="1" as="geometry">
            <mxPoint x="30" y="230" as="targetPoint" />
            <Array as="points">
              <mxPoint x="430" y="540" />
              <mxPoint x="30" y="540" />
            </Array>
          </mxGeometry>
        </mxCell>
        <mxCell id="SGgT7MJGST8tAyNsxuXf-93" value="&lt;font style=&quot;font-size: 6px;&quot;&gt;VIZ ParkingLotMarkerArray&lt;/font&gt;" style="edgeLabel;html=1;align=center;verticalAlign=middle;resizable=0;points=[];rotation=89;" parent="SGgT7MJGST8tAyNsxuXf-92" vertex="1" connectable="0">
          <mxGeometry x="0.6239" y="2" relative="1" as="geometry">
            <mxPoint as="offset" />
          </mxGeometry>
        </mxCell>
        <mxCell id="SGgT7MJGST8tAyNsxuXf-70" value="&lt;font style=&quot;font-size: 6px;&quot;&gt;publishMarkerArray&lt;/font&gt;" style="rounded=1;whiteSpace=wrap;html=1;fillColor=#d5e8d4;strokeColor=#82b366;" parent="1" vertex="1">
          <mxGeometry x="402.5" y="510" width="60" height="20" as="geometry" />
        </mxCell>
        <mxCell id="SGgT7MJGST8tAyNsxuXf-84" style="edgeStyle=orthogonalEdgeStyle;rounded=0;orthogonalLoop=1;jettySize=auto;html=1;exitX=0.5;exitY=1;exitDx=0;exitDy=0;entryX=0.5;entryY=0;entryDx=0;entryDy=0;" parent="1" source="SGgT7MJGST8tAyNsxuXf-73" target="SGgT7MJGST8tAyNsxuXf-76" edge="1">
          <mxGeometry relative="1" as="geometry" />
        </mxCell>
        <mxCell id="SGgT7MJGST8tAyNsxuXf-73" value="&lt;font style=&quot;font-size: 6px;&quot;&gt;OnScenario&lt;/font&gt;" style="rounded=1;whiteSpace=wrap;html=1;fillColor=#d5e8d4;strokeColor=#82b366;" parent="1" vertex="1">
          <mxGeometry x="170" y="310" width="70" height="20" as="geometry" />
        </mxCell>
        <mxCell id="SGgT7MJGST8tAyNsxuXf-85" style="edgeStyle=orthogonalEdgeStyle;rounded=0;orthogonalLoop=1;jettySize=auto;html=1;exitX=0.5;exitY=1;exitDx=0;exitDy=0;entryX=0.5;entryY=0;entryDx=0;entryDy=0;" parent="1" source="SGgT7MJGST8tAyNsxuXf-76" target="SGgT7MJGST8tAyNsxuXf-77" edge="1">
          <mxGeometry relative="1" as="geometry" />
        </mxCell>
        <mxCell id="SGgT7MJGST8tAyNsxuXf-76" value="&lt;font style=&quot;font-size: 6px;&quot;&gt;GetSelectedSlotID&lt;/font&gt;" style="rounded=1;whiteSpace=wrap;html=1;fillColor=#d5e8d4;strokeColor=#82b366;" parent="1" vertex="1">
          <mxGeometry x="170" y="353" width="70" height="20" as="geometry" />
        </mxCell>
        <mxCell id="SGgT7MJGST8tAyNsxuXf-86" style="edgeStyle=orthogonalEdgeStyle;rounded=0;orthogonalLoop=1;jettySize=auto;html=1;exitX=0.5;exitY=1;exitDx=0;exitDy=0;entryX=0.5;entryY=0;entryDx=0;entryDy=0;" parent="1" source="SGgT7MJGST8tAyNsxuXf-77" target="SGgT7MJGST8tAyNsxuXf-78" edge="1">
          <mxGeometry relative="1" as="geometry" />
        </mxCell>
        <mxCell id="SGgT7MJGST8tAyNsxuXf-77" value="&lt;font style=&quot;font-size: 6px;&quot;&gt;GetSlotSlope &amp;amp; goalAngle&lt;/font&gt;" style="rounded=1;whiteSpace=wrap;html=1;fillColor=#d5e8d4;strokeColor=#82b366;" parent="1" vertex="1">
          <mxGeometry x="160" y="390" width="90" height="20" as="geometry" />
        </mxCell>
        <mxCell id="SGgT7MJGST8tAyNsxuXf-87" style="edgeStyle=orthogonalEdgeStyle;rounded=0;orthogonalLoop=1;jettySize=auto;html=1;exitX=0.5;exitY=1;exitDx=0;exitDy=0;entryX=0.5;entryY=0;entryDx=0;entryDy=0;" parent="1" source="SGgT7MJGST8tAyNsxuXf-78" target="SGgT7MJGST8tAyNsxuXf-82" edge="1">
          <mxGeometry relative="1" as="geometry" />
        </mxCell>
        <mxCell id="SGgT7MJGST8tAyNsxuXf-78" value="&lt;font style=&quot;font-size: 6px;&quot;&gt;Find EndGoalPose&lt;/font&gt;" style="rounded=1;whiteSpace=wrap;html=1;fillColor=#d5e8d4;strokeColor=#82b366;" parent="1" vertex="1">
          <mxGeometry x="170" y="430" width="70" height="20" as="geometry" />
        </mxCell>
        <mxCell id="SGgT7MJGST8tAyNsxuXf-89" style="edgeStyle=orthogonalEdgeStyle;rounded=0;orthogonalLoop=1;jettySize=auto;html=1;exitX=0.5;exitY=1;exitDx=0;exitDy=0;entryX=0;entryY=0.5;entryDx=0;entryDy=0;dashed=1;" parent="1" source="SGgT7MJGST8tAyNsxuXf-82" target="SGgT7MJGST8tAyNsxuXf-88" edge="1">
          <mxGeometry relative="1" as="geometry">
            <Array as="points">
              <mxPoint x="205" y="560" />
              <mxPoint x="540" y="560" />
              <mxPoint x="540" y="330" />
            </Array>
          </mxGeometry>
        </mxCell>
        <mxCell id="SGgT7MJGST8tAyNsxuXf-90" value="&lt;font style=&quot;font-size: 6px;&quot;&gt;pub EndGoal &amp;amp; waypoints&lt;/font&gt;" style="edgeLabel;html=1;align=center;verticalAlign=middle;resizable=0;points=[];rotation=90;" parent="SGgT7MJGST8tAyNsxuXf-89" vertex="1" connectable="0">
          <mxGeometry x="-0.339" y="-1" relative="1" as="geometry">
            <mxPoint x="185" y="-61" as="offset" />
          </mxGeometry>
        </mxCell>
        <mxCell id="SGgT7MJGST8tAyNsxuXf-82" value="&lt;span style=&quot;font-size: 6px;&quot;&gt;Find Wp1,Wp2,InterPoint&lt;/span&gt;" style="rounded=1;whiteSpace=wrap;html=1;fillColor=#d5e8d4;strokeColor=#82b366;" parent="1" vertex="1">
          <mxGeometry x="165" y="470" width="80" height="20" as="geometry" />
        </mxCell>
        <mxCell id="SGgT7MJGST8tAyNsxuXf-94" style="edgeStyle=orthogonalEdgeStyle;rounded=0;orthogonalLoop=1;jettySize=auto;html=1;exitX=0.5;exitY=1;exitDx=0;exitDy=0;shape=link;" parent="1" source="SGgT7MJGST8tAyNsxuXf-88" target="SGgT7MJGST8tAyNsxuXf-50" edge="1">
          <mxGeometry relative="1" as="geometry" />
        </mxCell>
        <mxCell id="SGgT7MJGST8tAyNsxuXf-95" value="&lt;font style=&quot;font-size: 6px;&quot;&gt;GoalPose&amp;amp;Waypoint as route msg&lt;/font&gt;" style="edgeLabel;html=1;align=center;verticalAlign=middle;resizable=0;points=[];" parent="SGgT7MJGST8tAyNsxuXf-94" vertex="1" connectable="0">
          <mxGeometry x="-0.1655" y="-1" relative="1" as="geometry">
            <mxPoint as="offset" />
          </mxGeometry>
        </mxCell>
        <mxCell id="SGgT7MJGST8tAyNsxuXf-88" value="MissionPlanner" style="shape=process;whiteSpace=wrap;html=1;backgroundOutline=1;fillColor=#fff2cc;strokeColor=#d6b656;" parent="1" vertex="1">
          <mxGeometry x="600" y="300" width="120" height="60" as="geometry" />
        </mxCell>
        <mxCell id="SGgT7MJGST8tAyNsxuXf-96" value="" style="endArrow=classic;html=1;rounded=0;" parent="1" edge="1">
          <mxGeometry width="50" height="50" relative="1" as="geometry">
            <mxPoint x="660" y="39.31" as="sourcePoint" />
            <mxPoint x="730" y="39.31" as="targetPoint" />
            <Array as="points" />
          </mxGeometry>
        </mxCell>
        <mxCell id="SGgT7MJGST8tAyNsxuXf-101" style="edgeStyle=orthogonalEdgeStyle;rounded=0;orthogonalLoop=1;jettySize=auto;html=1;exitX=0;exitY=0.5;exitDx=0;exitDy=0;entryX=0.5;entryY=0;entryDx=0;entryDy=0;dashed=1;dashPattern=1 2;endArrow=baseDash;endFill=0;" parent="1" source="SGgT7MJGST8tAyNsxuXf-98" target="SGgT7MJGST8tAyNsxuXf-64" edge="1">
          <mxGeometry relative="1" as="geometry">
            <Array as="points">
              <mxPoint x="50" y="320" />
              <mxPoint x="50" y="520" />
              <mxPoint x="270" y="520" />
              <mxPoint x="270" y="370" />
              <mxPoint x="433" y="370" />
            </Array>
          </mxGeometry>
        </mxCell>
        <mxCell id="SGgT7MJGST8tAyNsxuXf-104" value="&lt;font style=&quot;font-size: 6px;&quot;&gt;Selected_park_pose&lt;/font&gt;" style="edgeLabel;html=1;align=center;verticalAlign=middle;resizable=0;points=[];rotation=-91;" parent="SGgT7MJGST8tAyNsxuXf-101" vertex="1" connectable="0">
          <mxGeometry x="-0.5907" y="2" relative="1" as="geometry">
            <mxPoint x="-11" y="-35" as="offset" />
          </mxGeometry>
        </mxCell>
        <mxCell id="SGgT7MJGST8tAyNsxuXf-103" style="edgeStyle=orthogonalEdgeStyle;rounded=0;orthogonalLoop=1;jettySize=auto;html=1;exitX=1;exitY=0.5;exitDx=0;exitDy=0;dashed=1;dashPattern=1 2;endArrow=baseDash;endFill=0;" parent="1" source="SGgT7MJGST8tAyNsxuXf-98" target="SGgT7MJGST8tAyNsxuXf-73" edge="1">
          <mxGeometry relative="1" as="geometry" />
        </mxCell>
        <mxCell id="SGgT7MJGST8tAyNsxuXf-134" style="edgeStyle=orthogonalEdgeStyle;rounded=0;orthogonalLoop=1;jettySize=auto;html=1;exitX=0.5;exitY=1;exitDx=0;exitDy=0;entryX=0.5;entryY=0;entryDx=0;entryDy=0;" parent="1" source="SGgT7MJGST8tAyNsxuXf-98" target="SGgT7MJGST8tAyNsxuXf-133" edge="1">
          <mxGeometry relative="1" as="geometry" />
        </mxCell>
        <mxCell id="SGgT7MJGST8tAyNsxuXf-98" value="&lt;font style=&quot;font-size: 6px;&quot;&gt;OnParkingLotPose&lt;/font&gt;" style="rounded=1;whiteSpace=wrap;html=1;fillColor=#d5e8d4;strokeColor=#82b366;" parent="1" vertex="1">
          <mxGeometry x="60" y="310" width="70" height="20" as="geometry" />
        </mxCell>
        <mxCell id="SGgT7MJGST8tAyNsxuXf-109" style="edgeStyle=orthogonalEdgeStyle;rounded=0;orthogonalLoop=1;jettySize=auto;html=1;exitX=0;exitY=0.5;exitDx=0;exitDy=0;entryX=0.5;entryY=0;entryDx=0;entryDy=0;dashed=1;dashPattern=1 1;strokeColor=default;endArrow=baseDash;endFill=0;" parent="1" source="SGgT7MJGST8tAyNsxuXf-105" target="SGgT7MJGST8tAyNsxuXf-108" edge="1">
          <mxGeometry relative="1" as="geometry">
            <Array as="points">
              <mxPoint x="320" y="400" />
            </Array>
          </mxGeometry>
        </mxCell>
        <mxCell id="SGgT7MJGST8tAyNsxuXf-110" value="&lt;font style=&quot;font-size: 6px;&quot;&gt;EndGoalPose&lt;/font&gt;" style="edgeLabel;html=1;align=center;verticalAlign=middle;resizable=0;points=[];rotation=-90;" parent="SGgT7MJGST8tAyNsxuXf-109" vertex="1" connectable="0">
          <mxGeometry x="-0.3714" y="1" relative="1" as="geometry">
            <mxPoint x="-11" y="4" as="offset" />
          </mxGeometry>
        </mxCell>
        <mxCell id="SGgT7MJGST8tAyNsxuXf-105" value="&lt;font style=&quot;font-size: 6px;&quot;&gt;UpdateGoalPose&lt;/font&gt;" style="rounded=1;whiteSpace=wrap;html=1;fillColor=#d5e8d4;strokeColor=#82b366;" parent="1" vertex="1">
          <mxGeometry x="330" y="390" width="55" height="20" as="geometry" />
        </mxCell>
        <mxCell id="SGgT7MJGST8tAyNsxuXf-112" style="edgeStyle=orthogonalEdgeStyle;rounded=0;orthogonalLoop=1;jettySize=auto;html=1;exitX=0.5;exitY=1;exitDx=0;exitDy=0;entryX=0.5;entryY=1;entryDx=0;entryDy=0;shape=link;" parent="1" source="SGgT7MJGST8tAyNsxuXf-108" target="SGgT7MJGST8tAyNsxuXf-50" edge="1">
          <mxGeometry relative="1" as="geometry">
            <Array as="points">
              <mxPoint x="320" y="600" />
              <mxPoint x="660" y="600" />
            </Array>
          </mxGeometry>
        </mxCell>
        <mxCell id="SGgT7MJGST8tAyNsxuXf-114" value="&lt;font style=&quot;font-size: 6px;&quot;&gt;Request UpdatedGoalPose at every waypoint completion&lt;/font&gt;" style="edgeLabel;html=1;align=center;verticalAlign=middle;resizable=0;points=[];" parent="SGgT7MJGST8tAyNsxuXf-112" vertex="1" connectable="0">
          <mxGeometry x="0.9291" y="-4" relative="1" as="geometry">
            <mxPoint x="-4" y="20" as="offset" />
          </mxGeometry>
        </mxCell>
        <mxCell id="SGgT7MJGST8tAyNsxuXf-115" value="&lt;font style=&quot;font-size: 6px;&quot;&gt;Respond with Updated GoalPose&lt;/font&gt;" style="edgeLabel;html=1;align=center;verticalAlign=middle;resizable=0;points=[];" parent="SGgT7MJGST8tAyNsxuXf-112" vertex="1" connectable="0">
          <mxGeometry x="-0.9416" relative="1" as="geometry">
            <mxPoint x="50" y="103" as="offset" />
          </mxGeometry>
        </mxCell>
        <mxCell id="YeCXha6RfLNIHZASDCSi-1" style="edgeStyle=orthogonalEdgeStyle;rounded=0;orthogonalLoop=1;jettySize=auto;html=1;exitX=0.75;exitY=1;exitDx=0;exitDy=0;entryX=0;entryY=0.25;entryDx=0;entryDy=0;dashed=1;" edge="1" parent="1" source="SGgT7MJGST8tAyNsxuXf-108" target="SGgT7MJGST8tAyNsxuXf-88">
          <mxGeometry relative="1" as="geometry">
            <Array as="points">
              <mxPoint x="339" y="550" />
              <mxPoint x="520" y="550" />
              <mxPoint x="520" y="315" />
            </Array>
          </mxGeometry>
        </mxCell>
        <mxCell id="YeCXha6RfLNIHZASDCSi-2" value="&lt;font style=&quot;font-size: 6px;&quot;&gt;UpdatedGoalPose for arrival_checker&lt;/font&gt;" style="edgeLabel;html=1;align=center;verticalAlign=middle;resizable=0;points=[];rotation=-90;" vertex="1" connectable="0" parent="YeCXha6RfLNIHZASDCSi-1">
          <mxGeometry x="0.4103" y="-1" relative="1" as="geometry">
            <mxPoint as="offset" />
          </mxGeometry>
        </mxCell>
        <mxCell id="SGgT7MJGST8tAyNsxuXf-108" value="&lt;font style=&quot;font-size: 6px;&quot;&gt;Service&lt;br&gt;onGoalPoseRequest&lt;br&gt;&lt;br&gt;&lt;/font&gt;" style="rounded=1;whiteSpace=wrap;html=1;fillColor=#d5e8d4;strokeColor=#82b366;" parent="1" vertex="1">
          <mxGeometry x="282.75" y="440" width="74.5" height="30" as="geometry" />
        </mxCell>
        <mxCell id="SGgT7MJGST8tAyNsxuXf-118" value="&lt;font style=&quot;font-size: 9px;&quot;&gt;100ms&lt;/font&gt;" style="text;html=1;strokeColor=none;fillColor=none;align=center;verticalAlign=middle;whiteSpace=wrap;rounded=0;" parent="1" vertex="1">
          <mxGeometry x="330" y="40" width="50" height="20" as="geometry" />
        </mxCell>
        <mxCell id="SGgT7MJGST8tAyNsxuXf-121" value="" style="endArrow=classic;html=1;rounded=0;dashed=1;" parent="1" edge="1">
          <mxGeometry width="50" height="50" relative="1" as="geometry">
            <mxPoint x="660" y="59.31" as="sourcePoint" />
            <mxPoint x="730" y="59.31" as="targetPoint" />
            <Array as="points" />
          </mxGeometry>
        </mxCell>
        <mxCell id="SGgT7MJGST8tAyNsxuXf-124" value="Ros2 Pub/Sub" style="edgeLabel;html=1;align=center;verticalAlign=middle;resizable=0;points=[];" parent="SGgT7MJGST8tAyNsxuXf-121" vertex="1" connectable="0">
          <mxGeometry x="0.5557" y="-3" relative="1" as="geometry">
            <mxPoint x="56" y="-2" as="offset" />
          </mxGeometry>
        </mxCell>
        <mxCell id="SGgT7MJGST8tAyNsxuXf-122" value="" style="endArrow=classic;html=1;rounded=0;shape=link;" parent="1" edge="1">
          <mxGeometry width="50" height="50" relative="1" as="geometry">
            <mxPoint x="660" y="80" as="sourcePoint" />
            <mxPoint x="730" y="80" as="targetPoint" />
            <Array as="points" />
          </mxGeometry>
        </mxCell>
        <mxCell id="SGgT7MJGST8tAyNsxuXf-125" value="Ros2 Service" style="edgeLabel;html=1;align=center;verticalAlign=middle;resizable=0;points=[];" parent="SGgT7MJGST8tAyNsxuXf-122" vertex="1" connectable="0">
          <mxGeometry x="0.733" y="1" relative="1" as="geometry">
            <mxPoint x="49" y="1" as="offset" />
          </mxGeometry>
        </mxCell>
        <mxCell id="SGgT7MJGST8tAyNsxuXf-123" value="Direct Call" style="text;html=1;align=center;verticalAlign=middle;resizable=0;points=[];autosize=1;strokeColor=none;fillColor=none;" parent="1" vertex="1">
          <mxGeometry x="730" y="20" width="80" height="30" as="geometry" />
        </mxCell>
        <mxCell id="SGgT7MJGST8tAyNsxuXf-126" value="" style="endArrow=baseDash;html=1;rounded=0;dashed=1;dashPattern=1 1;endFill=0;" parent="1" edge="1">
          <mxGeometry width="50" height="50" relative="1" as="geometry">
            <mxPoint x="660" y="100" as="sourcePoint" />
            <mxPoint x="730" y="100" as="targetPoint" />
            <Array as="points" />
          </mxGeometry>
        </mxCell>
        <mxCell id="SGgT7MJGST8tAyNsxuXf-127" value="GlobalScopeVariables" style="edgeLabel;html=1;align=center;verticalAlign=middle;resizable=0;points=[];" parent="SGgT7MJGST8tAyNsxuXf-126" vertex="1" connectable="0">
          <mxGeometry x="0.733" y="1" relative="1" as="geometry">
            <mxPoint x="69" y="1" as="offset" />
          </mxGeometry>
        </mxCell>
        <mxCell id="SGgT7MJGST8tAyNsxuXf-132" style="edgeStyle=orthogonalEdgeStyle;rounded=0;orthogonalLoop=1;jettySize=auto;html=1;exitX=0;exitY=0.5;exitDx=0;exitDy=0;entryX=1;entryY=0.5;entryDx=0;entryDy=0;dashed=1;dashPattern=1 1;endArrow=baseDash;endFill=0;" parent="1" source="SGgT7MJGST8tAyNsxuXf-130" target="SGgT7MJGST8tAyNsxuXf-11" edge="1">
          <mxGeometry relative="1" as="geometry" />
        </mxCell>
        <mxCell id="SGgT7MJGST8tAyNsxuXf-130" value="&lt;font style=&quot;font-size: 6px;&quot;&gt;callBackPacmodRpt&amp;nbsp;&lt;br&gt;Ros2MsgFilter&lt;/font&gt;" style="rounded=1;whiteSpace=wrap;html=1;fillColor=#d5e8d4;strokeColor=#82b366;" parent="1" vertex="1">
          <mxGeometry x="380" y="60" width="60" height="30" as="geometry" />
        </mxCell>
        <mxCell id="SGgT7MJGST8tAyNsxuXf-135" style="edgeStyle=orthogonalEdgeStyle;rounded=0;orthogonalLoop=1;jettySize=auto;html=1;exitX=1;exitY=0.5;exitDx=0;exitDy=0;dashed=1;dashPattern=1 1;endArrow=baseDash;endFill=0;" parent="1" source="SGgT7MJGST8tAyNsxuXf-133" target="SGgT7MJGST8tAyNsxuXf-52" edge="1">
          <mxGeometry relative="1" as="geometry">
            <Array as="points">
              <mxPoint x="150" y="420" />
              <mxPoint x="150" y="340" />
            </Array>
          </mxGeometry>
        </mxCell>
        <mxCell id="SGgT7MJGST8tAyNsxuXf-136" value="&lt;font style=&quot;font-size: 6px;&quot;&gt;SelectedParkLotMarker&lt;/font&gt;" style="edgeLabel;html=1;align=center;verticalAlign=middle;resizable=0;points=[];rotation=90;" parent="SGgT7MJGST8tAyNsxuXf-135" vertex="1" connectable="0">
          <mxGeometry x="-0.6517" relative="1" as="geometry">
            <mxPoint x="-5" y="-18" as="offset" />
          </mxGeometry>
        </mxCell>
        <mxCell id="SGgT7MJGST8tAyNsxuXf-133" value="&lt;font style=&quot;font-size: 6px;&quot;&gt;StoreInitialSlectedParkLot&lt;/font&gt;" style="rounded=1;whiteSpace=wrap;html=1;fillColor=#d5e8d4;strokeColor=#82b366;" parent="1" vertex="1">
          <mxGeometry x="60" y="410" width="70" height="20" as="geometry" />
        </mxCell>
        <mxCell id="YeCXha6RfLNIHZASDCSi-9" style="edgeStyle=orthogonalEdgeStyle;rounded=0;orthogonalLoop=1;jettySize=auto;html=1;exitX=0.5;exitY=1;exitDx=0;exitDy=0;entryX=0.5;entryY=0;entryDx=0;entryDy=0;" edge="1" parent="1" source="YeCXha6RfLNIHZASDCSi-4" target="YeCXha6RfLNIHZASDCSi-7">
          <mxGeometry relative="1" as="geometry" />
        </mxCell>
        <mxCell id="YeCXha6RfLNIHZASDCSi-4" value="&lt;font style=&quot;font-size: 6px;&quot;&gt;onShowParkingLots&lt;/font&gt;" style="rounded=1;whiteSpace=wrap;html=1;fillColor=#d5e8d4;strokeColor=#82b366;" vertex="1" parent="1">
          <mxGeometry x="110" y="100" width="60" height="20" as="geometry" />
        </mxCell>
        <mxCell id="YeCXha6RfLNIHZASDCSi-11" style="edgeStyle=orthogonalEdgeStyle;rounded=0;orthogonalLoop=1;jettySize=auto;html=1;exitX=0.5;exitY=1;exitDx=0;exitDy=0;entryX=0.5;entryY=0;entryDx=0;entryDy=0;" edge="1" parent="1" source="YeCXha6RfLNIHZASDCSi-7" target="YeCXha6RfLNIHZASDCSi-8">
          <mxGeometry relative="1" as="geometry" />
        </mxCell>
        <mxCell id="YeCXha6RfLNIHZASDCSi-7" value="&lt;font style=&quot;font-size: 6px;&quot;&gt;Reset GlobalScopeVars&lt;/font&gt;" style="rounded=1;whiteSpace=wrap;html=1;fillColor=#d5e8d4;strokeColor=#82b366;" vertex="1" parent="1">
          <mxGeometry x="100" y="138" width="80" height="20" as="geometry" />
        </mxCell>
        <mxCell id="YeCXha6RfLNIHZASDCSi-17" style="edgeStyle=orthogonalEdgeStyle;rounded=0;orthogonalLoop=1;jettySize=auto;html=1;exitX=0.5;exitY=1;exitDx=0;exitDy=0;entryX=0.5;entryY=0;entryDx=0;entryDy=0;endArrow=baseDash;endFill=0;dashed=1;dashPattern=1 2;" edge="1" parent="1" source="YeCXha6RfLNIHZASDCSi-8" target="YeCXha6RfLNIHZASDCSi-13">
          <mxGeometry relative="1" as="geometry" />
        </mxCell>
        <mxCell id="YeCXha6RfLNIHZASDCSi-8" value="&lt;font style=&quot;font-size: 6px;&quot;&gt;getTransform(egoPose)&lt;/font&gt;" style="rounded=1;whiteSpace=wrap;html=1;fillColor=#d5e8d4;strokeColor=#82b366;" vertex="1" parent="1">
          <mxGeometry x="110" y="175" width="65" height="20" as="geometry" />
        </mxCell>
        <mxCell id="YeCXha6RfLNIHZASDCSi-18" style="edgeStyle=orthogonalEdgeStyle;rounded=0;orthogonalLoop=1;jettySize=auto;html=1;exitX=0.5;exitY=1;exitDx=0;exitDy=0;entryX=0.75;entryY=0;entryDx=0;entryDy=0;endArrow=baseDash;endFill=0;dashed=1;dashPattern=1 1;" edge="1" parent="1" source="YeCXha6RfLNIHZASDCSi-13" target="SGgT7MJGST8tAyNsxuXf-133">
          <mxGeometry relative="1" as="geometry" />
        </mxCell>
        <mxCell id="YeCXha6RfLNIHZASDCSi-21" value="&lt;font style=&quot;font-size: 6px;&quot;&gt;tf_buffer_&lt;/font&gt;" style="edgeLabel;html=1;align=center;verticalAlign=middle;resizable=0;points=[];" vertex="1" connectable="0" parent="YeCXha6RfLNIHZASDCSi-18">
          <mxGeometry x="-0.6436" relative="1" as="geometry">
            <mxPoint x="-35" y="68" as="offset" />
          </mxGeometry>
        </mxCell>
        <mxCell id="YeCXha6RfLNIHZASDCSi-23" style="edgeStyle=orthogonalEdgeStyle;rounded=0;orthogonalLoop=1;jettySize=auto;html=1;exitX=1;exitY=0.5;exitDx=0;exitDy=0;entryX=1;entryY=0;entryDx=0;entryDy=0;dashed=1;dashPattern=1 1;endArrow=baseDash;endFill=0;" edge="1" parent="1" source="YeCXha6RfLNIHZASDCSi-13" target="SGgT7MJGST8tAyNsxuXf-64">
          <mxGeometry relative="1" as="geometry">
            <Array as="points">
              <mxPoint x="180" y="240" />
              <mxPoint x="490" y="240" />
              <mxPoint x="490" y="390" />
            </Array>
          </mxGeometry>
        </mxCell>
        <mxCell id="YeCXha6RfLNIHZASDCSi-24" value="&lt;font style=&quot;font-size: 6px;&quot;&gt;tf_buffer_&lt;/font&gt;" style="edgeLabel;html=1;align=center;verticalAlign=middle;resizable=0;points=[];" vertex="1" connectable="0" parent="YeCXha6RfLNIHZASDCSi-23">
          <mxGeometry x="-0.8125" y="2" relative="1" as="geometry">
            <mxPoint as="offset" />
          </mxGeometry>
        </mxCell>
        <mxCell id="YeCXha6RfLNIHZASDCSi-13" value="&lt;font style=&quot;font-size: 6px;&quot;&gt;transformPoint&lt;br&gt;map to base_link&lt;br&gt;&lt;/font&gt;" style="ellipse;whiteSpace=wrap;html=1;fillColor=#d5e8d4;strokeColor=#82b366;" vertex="1" parent="1">
          <mxGeometry x="107.5" y="225" width="70" height="35" as="geometry" />
        </mxCell>
      </root>
    </mxGraphModel>
  </diagram>
</mxfile>
